# xmcd CD database file
#
# Track frame offsets:
#	150
#	15858
#	33722
#	48959
#	66335
#	82461
#	106671
#	129661
#	142112
#	159728
#	172071
#
# Disc length: 2458 seconds
#
# Revision: 0
# Processed by: cddbd v1.5.1PL0 Copyright (c) Steve Scherf et al.
# Submitted via: CDex 1.51
#
DISCID=9b09980b
DTITLE=Topp Twins - Flowergirls And Cowgirls
DYEAR=1900
DGENRE=Country
TTITLE0=Just A Local Farmhand
TTITLE1=Let It Go
TTITLE2=Get On Back Home
TTITLE3=Long Distance Love
TTITLE4=We'll Meet Again My Love
TTITLE5=Raining In Tamworth
TTITLE6=There's A Bridle Hanging On The Wall
TTITLE7=It's High Time
TTITLE8=Round Up Time
TTITLE9=My Old Horse Faithful
TTITLE10=Topp Twins Go West
EXTD=
EXTT0=
EXTT1=
EXTT2=
EXTT3=
EXTT4=
EXTT5=
EXTT6=
EXTT7=
EXTT8=
EXTT9=
EXTT10=
PLAYORDER=
